# Blender 4.5.3 LTS
# www.blender.org
mtllib heli67_prop.mtl
o Cylinder
v -0.000000 1.492078 0.042564
v -0.000000 1.524151 0.042564
v 0.138878 1.492078 0.122745
v 0.138878 1.524151 0.122745
v 0.138878 1.492078 0.283108
v 0.138878 1.524151 0.283108
v -0.000000 1.492078 0.363290
v -0.000000 1.524151 0.363290
v -0.138878 1.492078 0.283108
v -0.138878 1.524151 0.283108
v -0.138878 1.492078 0.122745
v -0.138878 1.524151 0.122745
v 2.638878 1.524151 4.613235
v 2.638878 1.492078 4.613235
v 2.500000 1.492078 4.693417
v 2.500000 1.524151 4.693417
v 2.500000 1.492078 -4.287563
v 2.638879 1.492078 -4.207382
v 2.638879 1.524151 -4.207382
v 2.500000 1.524151 -4.287563
v -5.138878 1.524151 0.283108
v -5.138878 1.492078 0.283108
v -5.138878 1.492078 0.122745
v -5.138878 1.524151 0.122745
v 0.075196 1.653505 0.159513
v -0.000000 1.653505 0.116098
v 0.075196 1.653505 0.246341
v -0.000000 1.653505 0.289755
v -0.075196 1.653505 0.246341
v -0.075196 1.653505 0.159513
v -0.000000 1.435661 0.013598
v 0.163964 1.435661 0.108262
v 0.163964 1.435661 0.297591
v -0.000000 1.435661 0.392256
v -0.163964 1.435661 0.297591
v -0.163964 1.435661 0.108262
v 0.833333 1.524151 1.806666
v 1.666667 1.524151 3.250041
v 1.805545 1.524151 3.169860
v 0.972212 1.524151 1.726484
v 1.805545 1.492078 3.169860
v 0.972212 1.492078 1.726484
v 0.833333 1.492078 1.806666
v 1.666667 1.492078 3.250041
v 0.833333 1.524151 -1.400812
v 1.666667 1.524151 -2.844187
v 1.666667 1.492078 -2.844187
v 0.833333 1.492078 -1.400812
v 1.805545 1.492078 -2.764006
v 0.972212 1.492078 -1.320630
v 1.805545 1.524151 -2.764006
v 0.972212 1.524151 -1.320630
v -1.805545 1.492078 0.122745
v -3.472212 1.492078 0.122745
v -3.472212 1.524151 0.122745
v -1.805545 1.524151 0.122745
v -1.805545 1.492078 0.283108
v -3.472212 1.492078 0.283108
v -3.472212 1.524151 0.283108
v -1.805545 1.524151 0.283108
vn -0.8660 -0.0000 -0.5000
vn 1.0000 -0.0000 -0.0000
vn -0.0000 1.0000 -0.0000
vn -0.5000 -0.0000 0.8660
vn 0.8972 0.4417 -0.0000
vn -0.0000 -0.0000 -1.0000
vn -0.5000 -0.0000 -0.8660
vn 0.4569 0.4063 0.7913
vn 0.5000 -0.0000 0.8660
vn 0.8660 -0.0000 -0.5000
vn -0.8660 -0.0000 0.5000
vn -0.0000 -1.0000 -0.0000
vn 0.5000 -0.0000 -0.8660
vn 0.8660 -0.0000 0.5000
vn -1.0000 -0.0000 -0.0000
vn -0.0000 -0.0000 1.0000
vn -0.8972 0.4417 -0.0000
vn 0.4486 0.4417 -0.7770
vn 0.4486 0.4417 0.7770
vn -0.4486 0.4417 -0.7770
vn -0.4486 0.4417 0.7770
vn -0.4569 0.4063 -0.7913
vn -0.4569 0.4063 0.7913
vn 0.9137 0.4063 -0.0000
vn -0.9137 0.4063 -0.0000
vn 0.4569 0.4063 -0.7913
vt 0.800215 0.923333
vt 0.810059 0.682176
vt 0.800215 0.923333
vt 0.810059 0.682176
vt 0.332667 0.687098
vt 0.303137 0.677255
vt 0.303137 0.677255
vt 0.288373 0.677255
s 0
usemtl Material
f 47/1/1 46/1/1 20/1/1 17/1/1
f 3/2/2 4/2/2 6/2/2 5/2/2
f 39/3/3 38/3/3 16/3/3 13/3/3
f 7/2/4 8/2/4 10/2/4 9/2/4
f 6/2/5 4/2/5 25/2/5 27/2/5
f 55/3/6 54/3/6 23/3/6 24/3/6
f 11/2/7 12/2/7 2/4/7 1/4/7
f 5/2/8 7/2/8 34/2/8 33/2/8
f 14/3/9 13/3/9 16/3/9 15/3/9
f 41/3/10 39/3/10 13/3/10 14/3/10
f 38/3/11 44/3/11 15/3/11 16/3/11
f 44/3/12 41/3/12 14/3/12 15/3/12
f 17/3/13 20/3/13 19/3/13 18/3/13
f 49/3/12 47/3/12 17/3/12 18/3/12
f 51/3/14 49/3/14 18/3/14 19/3/14
f 46/3/3 51/3/3 19/3/3 20/3/3
f 22/3/15 21/3/15 24/3/15 23/3/15
f 54/3/12 58/3/12 22/3/12 23/3/12
f 59/3/3 55/3/3 24/3/3 21/3/3
f 58/3/16 59/3/16 21/3/16 22/3/16
f 25/2/3 26/2/3 30/2/3 29/2/3 28/2/3 27/2/3
f 12/2/17 10/2/17 29/2/17 30/2/17
f 4/2/18 2/2/18 26/2/18 25/2/18
f 8/2/19 6/2/19 27/2/19 28/2/19
f 2/4/20 12/2/20 30/2/20 26/4/20
f 10/2/21 8/2/21 28/2/21 29/2/21
f 31/2/12 32/2/12 33/2/12 34/2/12 35/2/12 36/2/12
f 11/2/22 1/4/22 31/4/22 36/2/22
f 7/2/23 9/2/23 35/2/23 34/2/23
f 3/2/24 5/2/24 33/2/24 32/2/24
f 9/2/25 11/2/25 36/2/25 35/2/25
f 1/2/26 3/2/26 32/2/26 31/2/26
f 7/3/12 5/3/12 42/3/12 43/3/12
f 43/5/12 42/5/12 41/5/12 44/5/12
f 8/3/11 7/3/11 43/3/11 37/3/11
f 37/5/11 43/5/11 44/5/11 38/5/11
f 5/3/10 6/3/10 40/3/10 42/3/10
f 42/5/10 40/5/10 39/5/10 41/5/10
f 6/3/3 8/3/3 37/3/3 40/3/3
f 40/5/3 37/5/3 38/5/3 39/5/3
f 2/3/3 4/3/3 52/3/3 45/3/3
f 45/6/3 52/6/3 51/6/3 46/6/3
f 4/3/14 3/3/14 50/3/14 52/3/14
f 52/6/14 50/6/14 49/6/14 51/6/14
f 3/3/12 1/3/12 48/3/12 50/3/12
f 50/6/12 48/6/12 47/6/12 49/6/12
f 1/1/1 2/1/1 45/1/1 48/1/1
f 48/7/1 45/7/1 46/7/1 47/7/1
f 9/3/16 10/3/16 60/3/16 57/3/16
f 57/8/16 60/8/16 59/8/16 58/8/16
f 10/3/3 12/3/3 56/3/3 60/3/3
f 60/8/3 56/8/3 55/8/3 59/8/3
f 11/3/12 9/3/12 57/3/12 53/3/12
f 53/8/12 57/8/12 58/8/12 54/8/12
f 12/3/6 11/3/6 53/3/6 56/3/6
f 56/8/6 53/8/6 54/8/6 55/8/6
